<?xml version="1.0" encoding="UTF-8" standalone="no"?>
<!-- Created with Inkscape (http://www.inkscape.org/) -->

<svg
   xmlns:dc="http://purl.org/dc/elements/1.1/"
   xmlns:cc="http://creativecommons.org/ns#"
   xmlns:rdf="http://www.w3.org/1999/02/22-rdf-syntax-ns#"
   xmlns:svg="http://www.w3.org/2000/svg"
   xmlns="http://www.w3.org/2000/svg"
   xmlns:sodipodi="http://sodipodi.sourceforge.net/DTD/sodipodi-0.dtd"
   xmlns:inkscape="http://www.inkscape.org/namespaces/inkscape"
   width="1200"
   height="1200"
   id="svg2"
   version="1.1"
   inkscape:version="0.48.4 r9939"
   sodipodi:docname="Új dokumentum 1">
  <defs
     id="defs4">
    <inkscape:path-effect
       effect="curvestitching"
       id="path-effect3781"
       is_visible="true"
       count="25"
       startpoint_edge_variation="0;1"
       startpoint_spacing_variation="0;1"
       endpoint_edge_variation="0;1"
       endpoint_spacing_variation="0;1"
       strokepath="m 1014.285705566404,938.076484680176 1000.000000000003,0"
       prop_scale="1"
       scale_y_rel="false" />
    <inkscape:path-effect
       effect="interpolate"
       id="path-effect3777"
       is_visible="true"
       trajectory="m 1514.285705566405,938.0764846801761 9e-13,-1e-13"
       equidistant_spacing="true"
       steps="20" />
  </defs>
  <sodipodi:namedview
     id="base"
     pagecolor="#646464"
     bordercolor="#ffffff"
     borderopacity="1"
     inkscape:pageopacity="1"
     inkscape:pageshadow="2"
     inkscape:zoom="0.6541666666666667"
     inkscape:cx="600"
     inkscape:cy="600"
     inkscape:document-units="px"
     inkscape:current-layer="layer1"
     showgrid="false"
     inkscape:object-nodes="true"
     inkscape:snap-smooth-nodes="true"
     fit-margin-top="0"
     fit-margin-left="0"
     fit-margin-right="0"
     fit-margin-bottom="0"
     borderlayer="true"
     inkscape:showpageshadow="false"
     inkscape:window-width="1920"
     inkscape:window-height="1014"
     inkscape:window-x="-4"
     inkscape:window-y="-4"
     inkscape:window-maximized="1" />
  <metadata
     id="metadata7">
    <rdf:RDF>
      <cc:Work
         rdf:about="">
        <dc:format>image/svg+xml</dc:format>
        <dc:type
           rdf:resource="http://purl.org/dc/dcmitype/StillImage" />
        <dc:title></dc:title>
      </cc:Work>
    </rdf:RDF>
  </metadata>
  <g
     inkscape:label="1. réteg"
     inkscape:groupmode="layer"
     id="layer1"
     transform="translate(-914.2857055664062,-338.076484680176)">
    <path
       style="color:#000000;fill:#ffffff;stroke:none;stroke-width:3;marker:none;visibility:visible;display:inline;overflow:visible;enable-background:accumulate"
       d="m 914.2857055664062,338.076484680176 1199.9999999999995,0 0,1200 -1199.9999999999995,0 z"
       id="rect3000"
       inkscape:connector-curvature="0" />
    <path
       id="path3774"
       style="color:#000000;fill:none;stroke:#000000;stroke-width:1;stroke-linecap:round;stroke-linejoin:round;stroke-miterlimit:4;stroke-dasharray:none;marker:none;visibility:visible;display:inline;overflow:visible;enable-background:accumulate"
       d="m 1514.285705566405,938.0764846801761 0,0 0,0 0,0 0,0 0,0 0,0 0,0 0,0 0,0 0,0 0,0 0,0 z m 0,26.315789473684 c -4.540685001799,0 -9.225546174701,-1.2553047679312 -13.157894736842,-3.5256472688304 -3.932348562141,-2.2703425008995 -7.361904967112,-5.699898905871 -9.632247468012,-9.6322474680115 -2.270342500899,-3.9323485621408 -3.525647268831,-8.6172097350435 -3.52564726883,-13.1578947368421 -9e-13,-4.5406850017987 1.255304767931,-9.2255461747017 3.52564726883,-13.1578947368421 2.2703425009,-3.9323485621408 5.699898905871,-7.3619049671122 9.632247468012,-9.6322474680117 3.932348562141,-2.2703425008992 8.617209735044,-3.5256472688305 13.157894736842,-3.5256472688305 4.540685001799,0 9.225546174701,1.2553047679313 13.157894736842,3.5256472688305 3.932348562141,2.2703425008995 7.361904967112,5.6998989058709 9.632247468012,9.6322474680117 2.270342500899,3.9323485621404 3.52564726883,8.6172097350434 3.52564726883,13.1578947368421 0,4.5406850017986 -1.255304767931,9.2255461747013 -3.52564726883,13.1578947368421 -2.2703425009,3.9323485621405 -5.699898905871,7.3619049671124 -9.632247468012,9.6322474680115 -3.932348562141,2.2703425008992 -8.617209735043,3.5256472688304 -13.157894736842,3.5256472688304 z m 0,26.3157894736843 c -9.081370003598,0 -18.451092349403,-2.5106095358625 -26.315789473684,-7.0512945376612 -7.864697124282,-4.5406850017987 -14.723809934225,-11.3997978117419 -19.264494936023,-19.2644949360231 -4.540685001799,-7.8646971242813 -7.051294537662,-17.2344194700871 -7.051294537661,-26.315789473684 -9e-13,-9.0813700035973 2.510609535862,-18.451092349403 7.051294537661,-26.3157894736843 4.540685001798,-7.8646971242813 11.399797811742,-14.7238099342246 19.264494936023,-19.2644949360232 7.864697124281,-4.5406850017986 17.234419470086,-7.0512945376612 26.315789473684,-7.0512945376611 9.081370003597,-1e-13 18.451092349403,2.5106095358625 26.315789473684,7.0512945376611 7.864697124282,4.5406850017987 14.723809934225,11.3997978117421 19.264494936024,19.2644949360232 4.540685001798,7.8646971242813 7.051294537661,17.234419470087 7.051294537661,26.3157894736843 0,9.0813700035969 -2.510609535863,18.4510923494031 -7.051294537661,26.315789473684 -4.540685001799,7.8646971242812 -11.399797811743,14.7238099342245 -19.264494936024,19.2644949360231 -7.864697124281,4.5406850017987 -17.234419470087,7.0512945376612 -26.315789473684,7.0512945376612 z m 0,26.3157894736845 c -13.622055005396,0 -27.676638524104,-3.765914303794 -39.473684210526,-10.576941806492 -11.797045686422,-6.811027502698 -22.085714901337,-17.0996967176127 -28.896742404035,-28.8967424040346 -6.811027502698,-11.7970456864218 -10.576941806492,-25.8516292051306 -10.576941806492,-39.4736842105264 0,-13.622055005396 3.765914303794,-27.6766385241046 10.576941806492,-39.4736842105264 6.811027502698,-11.7970456864216 17.099696717613,-22.0857149013367 28.896742404035,-28.8967424040345 11.797045686422,-6.8110275026979 25.85162920513,-10.5769418064915 39.473684210526,-10.5769418064916 13.622055005396,1e-13 27.676638524105,3.7659143037937 39.473684210527,10.5769418064916 11.797045686421,6.8110275026978 22.085714901337,17.0996967176129 28.896742404035,28.8967424040345 6.811027502697,11.7970456864221 10.576941806491,25.8516292051305 10.576941806491,39.4736842105264 0,13.6220550053957 -3.765914303794,27.6766385241046 -10.576941806491,39.4736842105264 -6.811027502698,11.7970456864219 -17.099696717614,22.0857149013368 -28.896742404035,28.8967424040346 -11.797045686422,6.811027502698 -25.851629205131,10.576941806492 -39.473684210527,10.576941806492 z m 0,26.315789473684 c -18.162740007194,0 -36.902184698806,-5.021219071725 -52.631578947368,-14.102589075322 -15.729394248563,-9.081370003598 -29.447619868449,-22.799595623484 -38.528989872046,-38.5289898720465 -9.081370003598,-15.7293942485626 -14.102589075323,-34.468838940174 -14.102589075323,-52.6315789473684 0,-18.1627400071945 5.021219071725,-36.902184698806 14.102589075323,-52.6315789473684 9.081370003597,-15.7293942485622 22.799595623484,-29.4476198684489 38.528989872046,-38.5289898720461 15.729394248562,-9.0813700035973 34.468838940174,-14.1025890753223 52.631578947368,-14.1025890753223 18.162740007194,0 36.902184698806,5.021219071725 52.631578947369,14.1025890753223 15.729394248562,9.0813700035972 29.447619868449,22.7995956234838 38.528989872046,38.5289898720461 9.081370003598,15.7293942485625 14.102589075322,34.4688389401742 14.102589075322,52.6315789473684 0,18.1627400071944 -5.021219071724,36.902184698806 -14.102589075322,52.6315789473684 -9.081370003597,15.7293942485626 -22.799595623484,29.4476198684496 -38.528989872046,38.5289898720465 -15.729394248562,9.081370003597 -34.468838940174,14.102589075322 -52.631578947369,14.102589075322 z m 0,26.315789473684 c -22.703425008993,0 -46.127730873508,-6.276523839656 -65.789473684211,-17.628236344153 -19.661742810703,-11.351712504496 -36.809524835561,-28.499494529355 -48.161237340057,-48.161237340057 -11.351712504497,-19.6617428107036 -17.628236344153,-43.086048675218 -17.628236344153,-65.789473684211 0,-22.7034250089932 6.276523839656,-46.1277308735077 17.628236344153,-65.7894736842106 11.351712504496,-19.6617428107029 28.499494529355,-36.8095248355612 48.161237340057,-48.1612373400577 19.661742810704,-11.3517125044965 43.086048675218,-17.6282363441527 65.789473684211,-17.6282363441527 22.703425008993,0 46.127730873508,6.2765238396562 65.789473684211,17.6282363441527 19.661742810703,11.3517125044965 36.809524835561,28.4994945293548 48.161237340058,48.1612373400579 11.351712504497,19.661742810703 17.628236344153,43.0860486752174 17.628236344153,65.7894736842104 0,22.703425008993 -6.276523839656,46.1277308735077 -17.628236344153,65.789473684211 -11.351712504496,19.661742810702 -28.499494529355,36.809524835561 -48.161237340058,48.161237340057 -19.661742810703,11.351712504497 -43.086048675218,17.628236344153 -65.789473684211,17.628236344153 z m 0,26.315789473684 c -27.244110010792,0 -55.353277048209,-7.531828607587 -78.947368421053,-21.153883612983 -23.594091372844,-13.622055005396 -44.171429802673,-34.199393435226 -57.793484808069,-57.793484808069 -13.622055005396,-23.5940913728441 -21.153883612983,-51.7032584102616 -21.153883612983,-78.9473684210529 0,-27.2441100107919 7.531828607587,-55.3532770482091 21.153883612983,-78.9473684210526 13.622055005396,-23.5940913728435 34.199393435226,-44.1714298026734 57.793484808069,-57.7934848080693 23.594091372845,-13.6220550053957 51.703258410261,-21.1538836129833 78.947368421053,-21.1538836129833 27.244110010792,0 55.353277048209,7.5318286075876 78.947368421053,21.1538836129833 23.594091372844,13.6220550053959 44.171429802674,34.1993934352257 57.79348480807,57.7934848080694 13.622055005396,23.5940913728435 21.153883612983,51.703258410261 21.153883612983,78.9473684210525 0,27.2441100107914 -7.531828607587,55.3532770482091 -21.153883612983,78.9473684210529 -13.622055005396,23.594091372843 -34.199393435227,44.171429802673 -57.79348480807,57.793484808069 -23.594091372844,13.622055005396 -51.703258410261,21.153883612983 -78.947368421053,21.153883612983 z m 0,26.315789473685 c -31.784795012591,0 -64.578823222911,-8.787133375519 -92.105263157895,-24.679530881815 -27.526439934984,-15.892397506295 -51.533334769785,-39.899292341096 -67.425732276081,-67.42573227608 -15.892397506295,-27.526439934985 -24.679530881814,-60.3204681453051 -24.679530881814,-92.105263157895 0,-31.7847950125904 8.787133375519,-64.5788232229108 24.679530881814,-92.1052631578948 15.892397506296,-27.5264399349841 39.899292341098,-51.5333347697856 67.425732276081,-67.4257322760807 27.526439934985,-15.8923975062951 60.320468145305,-24.679530881814 92.105263157895,-24.6795308818139 31.78479501259,-1e-13 64.578823222911,8.7871333755188 92.105263157895,24.6795308818139 27.526439934985,15.8923975062951 51.533334769786,39.8992923410967 67.425732276082,67.4257322760809 15.892397506295,27.5264399349842 24.679530881813,60.3204681453043 24.679530881813,92.1052631578946 0,31.7847950125899 -8.787133375518,64.578823222911 -24.679530881813,92.105263157895 -15.892397506296,27.526439934984 -39.899292341098,51.533334769786 -67.425732276082,67.42573227608 -27.526439934984,15.892397506296 -60.320468145305,24.679530881815 -92.105263157895,24.679530881815 z m 0,26.315789473684 c -36.325480014389,0 -73.804369397612,-10.04243814345 -105.263157894737,-28.205178150645 -31.458788497125,-18.162740007194 -58.895239736898,-45.599191246967 -77.057979744092,-77.057979744092 -18.162740007195,-31.458788497125 -28.205178150645,-68.9376778803481 -28.205178150645,-105.2631578947371 0,-36.325480014389 10.04243814345,-73.8043693976119 28.205178150645,-105.2631578947367 18.162740007194,-31.4587884971246 45.599191246968,-58.8952397368979 77.057979744092,-77.0579797440925 31.458788497126,-18.1627400071944 68.937677880348,-28.2051781506443 105.263157894737,-28.2051781506444 36.325480014389,1e-13 73.804369397612,10.04243814345 105.263157894737,28.2051781506444 31.458788497125,18.1627400071944 58.895239736899,45.5991912469677 77.057979744094,77.0579797440926 18.162740007194,31.4587884971246 28.205178150644,68.9376778803479 28.205178150644,105.2631578947365 0,36.325480014389 -10.04243814345,73.8043693976122 -28.205178150644,105.2631578947371 -18.162740007195,31.458788497125 -45.599191246969,58.895239736898 -77.057979744093,77.057979744092 -31.458788497125,18.162740007195 -68.937677880348,28.205178150645 -105.263157894738,28.205178150645 z m 0,26.315789473684 c -40.866165016188,0 -83.029915572314,-11.297742911381 -118.421052631579,-31.730825419475 -35.391137059266,-20.433082508094 -66.25714470401,-51.299090152839 -86.690227212104,-86.690227212104 -20.433082508094,-35.391137059266 -31.730825419475,-77.5548876153918 -31.730825419475,-118.4210526315792 0,-40.8661650161874 11.297742911381,-83.0299155723137 31.730825419475,-118.4210526315787 20.433082508094,-35.3911370592651 51.299090152839,-66.2571447040103 86.690227212104,-86.690227212104 35.391137059266,-20.4330825080938 77.554887615392,-31.7308254194749 118.421052631579,-31.7308254194749 40.866165016188,0 83.029915572314,11.2977429113811 118.421052631579,31.7308254194749 35.391137059266,20.4330825080939 66.257144704011,51.2990901528389 86.690227212105,86.690227212104 20.433082508094,35.3911370592655 31.730825419475,77.5548876153915 31.730825419475,118.4210526315787 0,40.8661650161874 -11.297742911381,83.0299155723142 -31.730825419475,118.4210526315792 -20.433082508093,35.391137059265 -51.299090152839,66.25714470401 -86.690227212104,86.690227212104 -35.391137059265,20.433082508094 -77.554887615392,31.730825419475 -118.42105263158,31.730825419475 z m 0,26.315789473684 c -45.406850017986,0 -92.255461747015,-12.553047679313 -131.578947368421,-35.256472688306 -39.323485621406,-22.703425008993 -73.619049671122,-56.998989058709 -96.322474680115,-96.322474680115 -22.703425008994,-39.323485621406 -35.256472688306,-86.1720973504355 -35.256472688306,-131.5789473684214 0,-45.406850017986 12.553047679312,-92.255461747015 35.256472688306,-131.5789473684209 22.703425008993,-39.3234856214059 56.99898905871,-73.6190496711223 96.322474680115,-96.3224746801153 39.323485621407,-22.703425008993 86.172097350435,-35.2564726883056 131.578947368421,-35.2564726883055 45.406850017986,-1e-13 92.255461747016,12.5530476793125 131.578947368421,35.2564726883055 39.323485621407,22.703425008993 73.619049671124,56.9989890587095 96.322474680117,96.3224746801154 22.703425008993,39.3234856214059 35.256472688306,86.1720973504349 35.256472688305,131.5789473684208 9e-13,45.4068500179859 -12.553047679312,92.2554617470154 -35.256472688305,131.5789473684214 -22.703425008993,39.323485621406 -56.998989058711,73.619049671123 -96.322474680116,96.322474680115 -39.323485621406,22.703425008993 -86.172097350435,35.256472688306 -131.578947368422,35.256472688306 z m 0,26.315789473684 c -49.947535019785,0 -101.481007921717,-13.808352447244 -144.736842105264,-38.782119957136 -43.255834183546,-24.973767509893 -80.980954638234,-62.69888796458 -105.954722148126,-105.954722148127 -24.973767509893,-43.255834183547 -38.782119957137,-94.7893070854788 -38.782119957137,-144.7368421052632 0,-49.9475350197848 13.808352447244,-101.4810079217167 38.782119957137,-144.7368421052631 24.973767509892,-43.2558341835462 62.698887964581,-80.9809546382345 105.954722148126,-105.9547221481267 43.255834183548,-24.9737675098924 94.78930708548,-38.7821199571363 144.736842105264,-38.7821199571363 49.947535019785,0 101.481007921717,13.8083524472439 144.736842105263,38.7821199571363 43.255834183547,24.9737675098922 80.980954638236,62.6988879645805 105.954722148129,105.954722148127 24.973767509892,43.2558341835465 38.782119957136,94.7893070854784 38.782119957136,144.7368421052629 0,49.9475350197845 -13.808352447244,101.4810079217174 -38.782119957136,144.7368421052632 -24.973767509893,43.255834183547 -62.698887964582,80.980954638235 -105.954722148128,105.954722148127 -43.255834183546,24.973767509892 -94.789307085479,38.782119957136 -144.736842105264,38.782119957136 z m 0,26.315789473685 c -54.488220021584,0 -110.706554096418,-15.063657215176 -157.894736842105,-42.307767225968 -47.188182745688,-27.244110010791 -88.342859605347,-68.398786870451 -115.586969616139,-115.586969616138 -27.244110010791,-47.188182745687 -42.307767225967,-103.4065168205223 -42.307767225967,-157.8947368421054 0,-54.4882200215834 15.063657215176,-110.7065540964179 42.307767225967,-157.8947368421051 27.244110010792,-47.1881827456868 68.398786870452,-88.3428596053469 115.586969616139,-115.5869696161385 47.188182745688,-27.2441100107917 103.406516820522,-42.3077672259667 157.894736842105,-42.3077672259667 54.488220021583,0 110.706554096419,15.063657215175 157.894736842106,42.3077672259667 47.188182745687,27.2441100107916 88.342859605348,68.3987868704517 115.58696961614,115.5869696161389 27.244110010792,47.1881827456868 42.307767225966,103.4065168205219 42.307767225966,157.8947368421048 0,54.4882200215832 -15.063657215174,110.7065540964184 -42.307767225966,157.8947368421054 -27.244110010792,47.188182745687 -68.398786870453,88.342859605347 -115.58696961614,115.586969616138 -47.188182745687,27.244110010792 -103.406516820522,42.307767225968 -157.894736842105,42.307767225968 z m 0,26.315789473684 c -59.028905023383,0 -119.93210027112,-16.318961983107 -171.052631578948,-45.833414494798 -51.120531307828,-29.514452511691 -95.704764572458,-74.098685776322 -125.219217084149,-125.21921708415 -29.514452511692,-51.120531307828 -45.833414494798,-112.0237265555655 -45.833414494798,-171.0526315789475 0,-59.0289050233821 16.318961983106,-119.9321002711197 45.833414494798,-171.0526315789473 29.514452511691,-51.1205313078273 74.098685776323,-95.704764572459 125.219217084149,-125.2192170841498 51.12053130783,-29.5144525116909 112.023726555566,-45.8334144947975 171.052631578948,-45.8334144947972 59.028905023382,-2e-13 119.93210027112,16.3189619831063 171.052631578948,45.8334144947972 51.120531307828,29.5144525116907 95.70476457246,74.0986857763226 125.219217084152,125.2192170841502 29.514452511691,51.1205313078276 45.833414494796,112.0237265555653 45.833414494796,171.052631578947 0,59.028905023382 -16.318961983105,119.9321002711204 -45.833414494796,171.0526315789475 -29.514452511692,51.120531307828 -74.098685776324,95.70476457246 -125.219217084152,125.21921708415 -51.120531307827,29.514452511691 -112.023726555565,45.833414494798 -171.052631578947,45.833414494798 z m 0,26.315789473684 c -63.569590025181,0 -129.157646445822,-17.574266751038 -184.21052631579,-49.359061763628 -55.052879869969,-31.784795012591 -103.066669539571,-79.798584682194 -134.851464552161,-134.851464552162 -31.784795012591,-55.052879869968 -49.359061763628,-120.640936290609 -49.359061763628,-184.2105263157894 0,-63.5695900251807 17.574266751037,-129.1576464458211 49.359061763628,-184.2105263157893 31.78479501259,-55.0528798699683 79.798584682194,-103.0666695395714 134.851464552161,-134.8514645521615 55.05287986997,-31.7847950125903 120.64093629061,-49.3590617636278 184.21052631579,-49.3590617636278 63.569590025181,0 129.157646445822,17.5742667510375 184.21052631579,49.3590617636278 55.052879869968,31.7847950125901 103.066669539573,79.7985846821935 134.851464552164,134.8514645521617 31.78479501259,55.052879869968 49.359061763627,120.6409362906089 49.359061763627,184.210526315789 0,63.5695900251804 -17.574266751037,129.1576464458215 -49.359061763627,184.2105263157894 -31.784795012591,55.052879869968 -79.798584682196,103.066669539572 -134.851464552163,134.851464552162 -55.052879869968,31.78479501259 -120.64093629061,49.359061763628 -184.21052631579,49.359061763628 z m 0,26.315789473684 c -68.11027502698,0 -138.383192620523,-18.829571518969 -197.368421052632,-52.884709032459 -58.985228432109,-34.055137513489 -110.428574506683,-85.498483588064 -144.483712020173,-144.483712020172 -34.055137513489,-58.98522843211 -52.884709032459,-129.258146025653 -52.884709032459,-197.3684210526324 0,-68.1102750269791 18.82957151897,-138.3831926205228 52.884709032459,-197.3684210526315 34.05513751349,-58.9852284321086 85.498483588065,-110.4285745066835 144.483712020173,-144.4837120201731 58.98522843211,-34.0551375134895 129.258146025653,-52.8847090324583 197.368421052632,-52.8847090324583 68.110275026979,0 138.383192620523,18.8295715189688 197.368421052632,52.8847090324583 58.985228432109,34.0551375134896 110.428574506685,85.4984835880646 144.483712020175,144.4837120201735 34.05513751349,58.9852284321088 52.884709032458,129.2581460256523 52.884709032458,197.3684210526311 0,68.1102750269795 -18.829571518968,138.3831926205235 -52.884709032458,197.3684210526324 -34.05513751349,58.985228432108 -85.498483588066,110.428574506684 -144.483712020174,144.483712020172 -58.985228432109,34.05513751349 -129.258146025653,52.884709032459 -197.368421052633,52.884709032459 z m 0,26.315789473684 c -72.650960028779,0 -147.608738795225,-20.0848762869 -210.526315789474,-56.410356301289 -62.91757699425,-36.325480014389 -117.790479473795,-91.198382493935 -154.115959488185,-154.115959488184 -36.325480014388,-62.91757699425 -56.410356301289,-137.875355760697 -56.410356301289,-210.5263157894744 0,-72.650960028778 20.084876286901,-147.6087387952241 56.410356301289,-210.5263157894735 36.32548001439,-62.9175769942493 91.198382493936,-117.7904794737957 154.115959488185,-154.1159594881847 62.917576994251,-36.3254800143887 137.875355760696,-56.4103563012891 210.526315789474,-56.410356301289 72.650960028778,-1e-13 147.608738795225,20.0848762869002 210.526315789474,56.410356301289 62.91757699425,36.3254800143889 117.790479473798,91.1983824939356 154.115959488187,154.1159594881849 36.325480014389,62.9175769942492 56.410356301288,137.8753557606958 56.410356301288,210.5263157894733 0,72.6509600287775 -20.084876286899,147.6087387952255 -56.410356301288,210.5263157894744 -36.325480014389,62.917576994249 -91.198382493938,117.790479473796 -154.115959488186,154.115959488184 -62.917576994249,36.325480014389 -137.875355760697,56.410356301289 -210.526315789475,56.410356301289 z m 0,26.315789473684 c -77.191645030577,9e-13 -156.834284969926,-21.340181054831 -223.684210526316,-59.936003570119 -66.849925556391,-38.595822515289 -125.152384440907,-96.898281399806 -163.748206956196,-163.748206956196 -38.595822515288,-66.849925556391 -59.93600357012,-146.49256549574 -59.93600357012,-223.6842105263165 0,-77.1916450305765 21.340181054832,-156.8342849699255 59.93600357012,-223.6842105263156 38.595822515289,-66.84992555639 96.898281399807,-125.152384440908 163.748206956196,-163.7482069561961 66.849925556392,-38.5958225152882 146.49256549574,-59.9360035701196 223.684210526316,-59.9360035701196 77.191645030576,0 156.834284969927,21.3401810548314 223.684210526316,59.9360035701196 66.849925556391,38.595822515288 125.15238444091,96.8982813998061 163.748206956199,163.7482069561962 38.595822515288,66.84992555639 59.936003570119,146.4925654957394 59.936003570119,223.6842105263155 0,77.1916450305764 -21.340181054831,156.8342849699266 -59.936003570119,223.6842105263165 -38.595822515289,66.84992555639 -96.898281399809,125.152384440908 -163.748206956198,163.748206956196 -66.849925556389,38.595822515288 -146.49256549574,59.93600357012 -223.684210526316,59.936003570119 z m 0,26.315789473685 c -81.732330032375,0 -166.059831144628,-22.595485822763 -236.842105263158,-63.461650838951 -70.782274118531,-40.866165016188 -132.51428940802,-102.598180305677 -173.380454424208,-173.380454424207 -40.866165016187,-70.782274118532 -63.46165083895,-155.109775230784 -63.46165083895,-236.8421052631584 0,-81.7323300323752 22.595485822763,-166.0598311446272 63.46165083895,-236.8421052631578 40.866165016188,-70.7822741185304 102.598180305679,-132.5142894080202 173.380454424208,-173.3804544242076 70.782274118532,-40.8661650161875 155.109775230783,-63.4616508389501 236.842105263158,-63.46165083895 81.732330032375,-1e-13 166.059831144628,22.5954858227625 236.842105263158,63.46165083895 70.782274118532,40.8661650161874 132.514289408023,102.5981803056773 173.380454424211,173.3804544242079 40.866165016187,70.7822741185304 63.461650838949,155.1097752307827 63.461650838949,236.8421052631576 0,81.7323300323744 -22.595485822762,166.0598311446274 -63.461650838949,236.8421052631584 -40.866165016188,70.78227411853 -102.59818030568,132.514289408021 -173.38045442421,173.380454424207 -70.78227411853,40.866165016188 -155.109775230783,63.461650838951 -236.842105263158,63.461650838951 z m 0,26.315789473684 c -86.273015034174,0 -175.285377319329,-23.850790590694 -250,-66.987298107781 -74.714622680673,-43.136507517087 -139.876194375132,-108.298079211548 -183.012701892219,-183.012701892219 -43.136507517087,-74.714622680672 -66.987298107782,-163.726984965827 -66.987298107781,-250.0000000000005 -1e-12,-86.2730150341739 23.850790590694,-175.2853773193286 66.987298107781,-250 43.136507517087,-74.7146226806708 108.298079211548,-139.8761943751324 183.012701892219,-183.0127018922191 74.714622680673,-43.1365075170869 163.726984965827,-66.9872981077805 250,-66.9872981077806 86.273015034174,1e-13 175.28537731933,23.8507905906937 250.000000000001,66.9872981077806 74.714622680671,43.1365075170867 139.876194375134,108.2980792115483 183.012701892221,183.0127018922195 43.136507517087,74.714622680671 66.98729810778,163.7269849658263 66.98729810778,249.9999999999996 0,86.2730150341733 -23.850790590693,175.2853773193294 -66.98729810778,250.0000000000005 -43.136507517087,74.714622680671 -108.298079211551,139.876194375133 -183.012701892221,183.012701892219 -74.714622680671,43.136507517087 -163.726984965826,66.987298107781 -250,66.987298107781 z"
       inkscape:path-effect="#path-effect3777"
       inkscape:original-d="m 1514.285705566405,938.0764846801761 0,0 0,0 0,0 0,0 0,0 0,0 0,0 0,0 0,0 0,0 0,0 z m -1e-12,499.9999999999999 c -86.273015034174,0 -175.285377319329,-23.850790590694 -250,-66.987298107781 -74.714622680672,-43.136507517087 -139.876194375132,-108.298079211548 -183.012701892219,-183.012701892219 -43.136507517087,-74.714622680672 -66.987298107781,-163.726984965827 -66.987298107781,-250.0000000000005 0,-86.2730150341738 23.850790590694,-175.2853773193288 66.987298107781,-249.9999999999999 43.136507517087,-74.7146226806709 108.298079211549,-139.8761943751325 183.012701892219,-183.0127018922192 74.714622680673,-43.1365075170868 163.726984965827,-66.9872981077806 250,-66.9872981077806 86.273015034174,0 175.28537731933,23.8507905906938 250.000000000001,66.9872981077806 74.714622680672,43.1365075170867 139.876194375135,108.2980792115483 183.012701892222,183.0127018922195 43.136507517087,74.714622680671 66.98729810778,163.7269849658264 66.98729810778,249.9999999999996 0,86.2730150341733 -23.850790590693,175.2853773193294 -66.98729810778,250.0000000000005 -43.136507517087,74.714622680671 -108.298079211551,139.876194375133 -183.012701892221,183.012701892219 -74.714622680671,43.136507517087 -163.726984965827,66.987298107781 -250.000000000001,66.987298107781 z" />
    <path
       d="m 1514.285705566405,938.0764846801761 -1e-12,499.9999999999999 m 1e-12,-499.9999999999999 -129.386989878129,482.8627146025709 m 129.386989878129,-482.8627146025709 -250.007216842747,433.0085351640499 m 250.007216842747,-433.0085351640499 -353.489672365691,353.4719873420889 m 353.489672365691,-353.4719873420889 -433.021034979162,249.9855661014568 m 433.021034979162,-249.9855661014568 -482.869187372466,129.3628315799798 m 482.869187372466,-129.3628315799798 -499.999999360354,-0.024999999138 m 499.999999360354,0.024999999138 -482.856240638652,-129.4111478563285 M 1514.285705566405,938.0764846801761 1081.289671324881,688.0476177366238 M 1514.285705566405,938.0764846801761 1160.831404121983,584.5691281649961 M 1514.285705566405,938.0764846801761 1264.321790844532,505.042950994577 m 249.963914721873,433.0335336855991 -129.338672961944,-482.8756589483172 m 129.338672961944,482.8756589483172 0.04999999651,-499.9999974414253 m -0.04999999651,499.9999974414253 129.435305514517,-482.8497654807224 m -129.435305514517,482.8497654807224 250.05051640317,-432.9835322120066 m -250.05051640317,432.9835322120066 353.525039790513,-353.4366146727324 M 1514.285705566405,938.0764846801761 1947.331736849657,688.1342219759546 M 1514.285705566405,938.0764846801761 1997.167834896518,808.761970656094 m -482.882129330113,129.3145140240821 499.999994243233,0.074999992046 m -499.999994243233,-0.074999992046 482.843289128803,129.4594628526339 M 1514.285705566405,938.0764846801761 1947.256734641949,1188.148649901732 M 1514.285705566405,938.0764846801761 1867.70463259347,1291.61920687182 m -353.418927027065,-353.542722191644 249.920610048559,433.058527772099 m -249.920610048559,-433.058527772099 129.290354766452,482.8885985178298 m -129.290354766452,-482.8885985178298 -1e-12,499.9999999999999"
       style="color:#000000;fill:none;stroke:#000000;stroke-width:1;stroke-linecap:round;stroke-linejoin:round;stroke-miterlimit:4;stroke-dasharray:none;marker:none;visibility:visible;display:inline;overflow:visible;enable-background:accumulate"
       id="path3779"
       inkscape:path-effect="#path-effect3781"
       inkscape:original-d="m 1514.285705566405,938.0764846801761 0,0 0,0 0,0 0,0 0,0 0,0 0,0 0,0 0,0 0,0 0,0 z m -1e-12,499.9999999999999 c -86.273015034174,0 -175.285377319329,-23.850790590694 -250,-66.987298107781 -74.714622680672,-43.136507517087 -139.876194375132,-108.298079211548 -183.012701892219,-183.012701892219 -43.136507517087,-74.714622680672 -66.987298107781,-163.726984965827 -66.987298107781,-250.0000000000005 0,-86.2730150341738 23.850790590694,-175.2853773193288 66.987298107781,-249.9999999999999 43.136507517087,-74.7146226806709 108.298079211549,-139.8761943751325 183.012701892219,-183.0127018922192 74.714622680673,-43.1365075170868 163.726984965827,-66.9872981077806 250,-66.9872981077806 86.273015034174,0 175.28537731933,23.8507905906938 250.000000000001,66.9872981077806 74.714622680672,43.1365075170867 139.876194375135,108.2980792115483 183.012701892222,183.0127018922195 43.136507517087,74.714622680671 66.98729810778,163.7269849658264 66.98729810778,249.9999999999996 0,86.2730150341733 -23.850790590693,175.2853773193294 -66.98729810778,250.0000000000005 -43.136507517087,74.714622680671 -108.298079211551,139.876194375133 -183.012701892221,183.012701892219 -74.714622680671,43.136507517087 -163.726984965827,66.987298107781 -250.000000000001,66.987298107781 z" />
  </g>
</svg>
